<svg xmlns="http://www.w3.org/2000/svg" viewBox="0 0 512 512" style="height: 512px; width: 512px;"><defs><filter id="shadow-1" height="300%" width="300%" x="-100%" y="-100%"><feFlood flood-color="rgba(0, 0, 0, 1)" result="flood"></feFlood><feComposite in="flood" in2="SourceGraphic" operator="atop" result="composite"></feComposite><feGaussianBlur in="composite" stdDeviation="5" result="blur"></feGaussianBlur><feOffset dx="0" dy="0" result="offset"></feOffset><feComposite in="SourceGraphic" in2="offset" operator="over"></feComposite></filter><radialGradient id="lorc-checked-shield-gradient-0"><stop offset="0%" stop-color="#000000" stop-opacity="1"></stop><stop offset="100%" stop-color="#9b9b9b" stop-opacity="1"></stop></radialGradient></defs><polygon points="472.51,381,256,506,39.49,381,39.49,131,256,6,472.51,131" fill="url(#lorc-checked-shield-gradient-0)" stroke="#000000" stroke-opacity="1" stroke-width="6"></polygon><g class="" transform="translate(0,25)" style=""><path d="M48.906 19.656v10.782c0 103.173 10.53 206.07 41.313 289.53 30.78 83.463 82.763 148.094 164.53 170.563l2.188.626 2.25-.5c89.686-19.12 142.322-84.028 171.187-168.344 28.865-84.315 35.406-188.656 35.406-291.875v-10.78l-10.655 1.53C323.26 39.954 191.452 40 59.595 21.188l-10.69-1.53zM67.75 41.03c63.242 8.536 126.495 12.792 189.75 12.782v184.532h174.78c-4.905 27.572-11.31 53.747-19.592 77.937-27.348 79.884-73.757 137.33-155.157 155.564-.008-.003-.02.003-.03 0v-233.5H86.53c-12.87-60.99-18.277-128.81-18.78-197.313z" fill="#ffffff" fill-opacity="1" transform="translate(76.8, 76.8) scale(0.7, 0.7) rotate(0, 256, 256) skewX(0) skewY(0)" filter="url(#shadow-1)"></path></g></svg>