<svg xmlns="http://www.w3.org/2000/svg" viewBox="0 0 512 512" style="height: 512px; width: 512px;"><defs><filter id="shadow-1" height="300%" width="300%" x="-100%" y="-100%"><feFlood flood-color="rgba(0, 0, 0, 1)" result="flood"></feFlood><feComposite in="flood" in2="SourceGraphic" operator="atop" result="composite"></feComposite><feGaussianBlur in="composite" stdDeviation="15" result="blur"></feGaussianBlur><feOffset dx="0" dy="0" result="offset"></feOffset><feComposite in="SourceGraphic" in2="offset" operator="over"></feComposite></filter><linearGradient x1="0" x2="0" y1="0" y2="1" id="lorc-flying-flag-gradient-0"><stop offset="0%" stop-color="#d0021b" stop-opacity="1"></stop><stop offset="100%" stop-color="#f5a623" stop-opacity="1"></stop></linearGradient><linearGradient x1="0" x2="0" y1="0" y2="1" id="lorc-flying-flag-gradient-1"><stop offset="0%" stop-color="#ffffff" stop-opacity="1"></stop><stop offset="100%" stop-color="#4a90e2" stop-opacity="1"></stop></linearGradient></defs><polygon points="379,469.04,133,469.04,10,256,133,42.96,379,42.96,502,256" fill="url(#lorc-flying-flag-gradient-0)" stroke="#ffffff" stroke-opacity="1" stroke-width="10"></polygon><g class="" transform="translate(-25,0)" style=""><path d="M356.688 19.188c-6.83-.032-12.837.64-18.125 1.843-24.178 5.495-36.437 21.983-50.938 41.157-14.5 19.175-31.317 40.993-62.78 47.47C195.08 115.78 154.27 108.253 91.25 78.5c-10.013 44.88-33.406 128.62-60.906 178.656 60.093 28.5 97.245 34.926 121 30.875.01 0 .02.004.03 0 21.59-5.827 34.487-20.094 47.876-43.092 17.014-29.227 32.563-72.198 60.25-123.188l16.406 8.938c-16.69 30.735-28.802 58.617-40 82.937 8.552-6.512 18.633-11.77 31.063-14.594 27.71-6.296 65.053-.495 121.655 24.75-6.932-29.276-1.885-61.913 9.875-92.218 12.686-32.69 33.038-62.907 56.28-84.03-42.595-19.553-73.152-27.554-95.124-28.282-1.01-.033-1.993-.058-2.97-.063zm127.54 14.144a10.775 10.775 0 0 0-2.664.266c-4.378.977-8.94 4.424-12.084 11.097L289.53 497.31h23.61L490.972 49.368c3.475-10.153-.75-15.86-6.746-16.035z" fill="url(#lorc-flying-flag-gradient-1)" stroke="#000000" stroke-opacity="1" stroke-width="10" filter="url(#shadow-1)" transform="translate(76.8, 76.8) scale(0.7, 0.7) rotate(0, 256, 256) skewX(0) skewY(0)"></path></g></svg>