<svg xmlns="http://www.w3.org/2000/svg" viewBox="0 0 512 512" style="height: 512px; width: 512px;"><defs><filter id="shadow-1" height="300%" width="300%" x="-100%" y="-100%"><feFlood flood-color="rgba(255, 255, 255, 1)" result="flood"></feFlood><feComposite in="flood" in2="SourceGraphic" operator="atop" result="composite"></feComposite><feGaussianBlur in="composite" stdDeviation="15" result="blur"></feGaussianBlur><feOffset dx="0" dy="10" result="offset"></feOffset><feComposite in="SourceGraphic" in2="offset" operator="over"></feComposite></filter><linearGradient x1="0" x2="0" y1="0" y2="1" id="skoll-allied-star-gradient-0"><stop offset="0%" stop-color="#ffffff" stop-opacity="1"></stop><stop offset="100%" stop-color="#4a90e2" stop-opacity="1"></stop></linearGradient></defs><polygon points="469.04,379,256,502,42.96,379,42.96,133,256,10,469.04,133" fill="url(#skoll-allied-star-gradient-0)" stroke="#000000" stroke-opacity="1" stroke-width="10"></polygon><g class="" transform="translate(0,0)" style=""><path d="M256 26C129.17 26 26 129.17 26 256s103.192 230 230 230 230-103.192 230-230S382.83 26 256 26zm168.813 174.7H298.258L257.442 78.36c78.035.628 144.206 51.81 167.37 122.34zM254.558 78.36 213.786 200.7H87.23c23.123-70.53 89.294-121.71 167.33-122.34zM78.328 256a177.056 177.056 0 0 1 7.637-51.49l101.728 75.932-37.34 118.345A177.518 177.518 0 0 1 78.33 256zm76.66 146.045L256 330.03l101.013 72.015a177.177 177.177 0 0 1-202.026 0zm206.614-3.302-37.295-118.345 101.728-75.933a177.463 177.463 0 0 1-64.39 194.322z" fill="#000000" fill-opacity="1" stroke="#ffffff" stroke-opacity="1" stroke-width="6" transform="translate(51.2, 51.2) scale(0.8, 0.8) rotate(0, 256, 256) skewX(0) skewY(0)" filter="url(#shadow-1)"></path></g></svg>