<svg xmlns="http://www.w3.org/2000/svg" viewBox="0 0 512 512" style="height: 512px; width: 512px;"><defs><filter id="shadow-1" height="300%" width="300%" x="-100%" y="-100%"><feFlood flood-color="rgba(255, 255, 255, 1)" result="flood"></feFlood><feComposite in="flood" in2="SourceGraphic" operator="atop" result="composite"></feComposite><feGaussianBlur in="composite" stdDeviation="16" result="blur"></feGaussianBlur><feOffset dx="0" dy="0" result="offset"></feOffset><feComposite in="SourceGraphic" in2="offset" operator="over"></feComposite></filter><filter id="shadow-2" height="300%" width="300%" x="-100%" y="-100%"><feFlood flood-color="rgba(155, 155, 155, 1)" result="flood"></feFlood><feComposite in="flood" in2="SourceGraphic" operator="atop" result="composite"></feComposite><feGaussianBlur in="composite" stdDeviation="15" result="blur"></feGaussianBlur><feOffset dx="0" dy="10" result="offset"></feOffset><feComposite in="SourceGraphic" in2="offset" operator="over"></feComposite></filter><filter id="shadow-3" height="300%" width="300%" x="-100%" y="-100%"><feFlood flood-color="rgba(155, 155, 155, 1)" result="flood"></feFlood><feComposite in="flood" in2="SourceGraphic" operator="atop" result="composite"></feComposite><feGaussianBlur in="composite" stdDeviation="15" result="blur"></feGaussianBlur><feOffset dx="0" dy="10" result="offset"></feOffset><feComposite in="SourceGraphic" in2="offset" operator="over"></feComposite></filter><filter id="shadow-4" height="300%" width="300%" x="-100%" y="-100%"><feFlood flood-color="rgba(155, 155, 155, 1)" result="flood"></feFlood><feComposite in="flood" in2="SourceGraphic" operator="atop" result="composite"></feComposite><feGaussianBlur in="composite" stdDeviation="15" result="blur"></feGaussianBlur><feOffset dx="0" dy="10" result="offset"></feOffset><feComposite in="SourceGraphic" in2="offset" operator="over"></feComposite></filter><filter id="shadow-5" height="300%" width="300%" x="-100%" y="-100%"><feFlood flood-color="rgba(155, 155, 155, 1)" result="flood"></feFlood><feComposite in="flood" in2="SourceGraphic" operator="atop" result="composite"></feComposite><feGaussianBlur in="composite" stdDeviation="15" result="blur"></feGaussianBlur><feOffset dx="0" dy="10" result="offset"></feOffset><feComposite in="SourceGraphic" in2="offset" operator="over"></feComposite></filter><filter id="shadow-6" height="300%" width="300%" x="-100%" y="-100%"><feFlood flood-color="rgba(155, 155, 155, 1)" result="flood"></feFlood><feComposite in="flood" in2="SourceGraphic" operator="atop" result="composite"></feComposite><feGaussianBlur in="composite" stdDeviation="15" result="blur"></feGaussianBlur><feOffset dx="0" dy="10" result="offset"></feOffset><feComposite in="SourceGraphic" in2="offset" operator="over"></feComposite></filter><filter id="shadow-7" height="300%" width="300%" x="-100%" y="-100%"><feFlood flood-color="rgba(155, 155, 155, 1)" result="flood"></feFlood><feComposite in="flood" in2="SourceGraphic" operator="atop" result="composite"></feComposite><feGaussianBlur in="composite" stdDeviation="15" result="blur"></feGaussianBlur><feOffset dx="0" dy="10" result="offset"></feOffset><feComposite in="SourceGraphic" in2="offset" operator="over"></feComposite></filter><filter id="shadow-8" height="300%" width="300%" x="-100%" y="-100%"><feFlood flood-color="rgba(255, 255, 255, 1)" result="flood"></feFlood><feComposite in="flood" in2="SourceGraphic" operator="atop" result="composite"></feComposite><feGaussianBlur in="composite" stdDeviation="16" result="blur"></feGaussianBlur><feOffset dx="0" dy="0" result="offset"></feOffset><feComposite in="SourceGraphic" in2="offset" operator="over"></feComposite></filter><linearGradient x1="0" x2="0" y1="0" y2="1" id="faithtoken-card-random-gradient-0"><stop offset="0%" stop-color="#4a90e2" stop-opacity="1"></stop><stop offset="100%" stop-color="#9013fe" stop-opacity="1"></stop></linearGradient></defs><g class="" transform="translate(-6,-12)" style=""><g transform="translate(25.6, 25.6) scale(0.9, 0.9) rotate(-15, 256, 256) skewX(0) skewY(0)"><path d="M386.688 487.75L267.452 432.327C259.554 428.654 256.118 419.262 259.792 411.351L344.166 229.828C347.833 221.924 357.236 218.494 365.129 222.161L484.369 277.595C492.269 281.268 495.699 290.66 492.025 298.559L407.655 480.083C403.977 487.987 394.579 491.417 386.687 487.75Z" class="" fill="#000000" fill-opacity="1" stroke="#ffffff" stroke-opacity="1" stroke-width="6" filter="url(#shadow-2)"></path><path d="M98.95 467.945L19.79 284.09C16.342 276.083 20.045 266.788 28.04 263.346L67.236 246.474L116.211 430.518C120.905 448.106 138.966 458.596 156.571 453.908L195.603 443.522L119.696 476.208C111.689 479.651 102.4 475.953 98.952 467.946Z" class="" fill="#000000" fill-opacity="1" stroke="#ffffff" stroke-opacity="1" stroke-width="6" filter="url(#shadow-3)"></path><path d="M132.84 426.085L81.362 232.638C79.122 224.218 84.142 215.56 92.552 213.326L126.585 204.274L122.487 234.739C120.065 252.775 132.711 269.391 150.772 271.826L230.6 282.584L198.103 392.051C194.758 403.331 197.733 414.999 204.969 423.231L152.149 437.281C143.729 439.521 135.079 434.511 132.839 426.085Z" class="" fill="#000000" fill-opacity="1" stroke="#ffffff" stroke-opacity="1" stroke-width="6" filter="url(#shadow-4)"></path><path d="M241.268 421.325L225.248 416.565C216.888 414.075 212.128 405.298 214.604 396.938L271.574 205.038C274.058 196.678 282.854 191.918 291.196 194.388L340.269 208.971L340.277 208.966L340.397 209.01L340.264 208.976C335.173 212.335 331.12 217.046 328.559 222.581L244.179 404.111C241.68 409.485 240.673 415.432 241.264 421.329Z" class="" fill="#000000" fill-opacity="1" stroke="#ffffff" stroke-opacity="1" stroke-width="6" filter="url(#shadow-5)"></path><path d="M235.561 265.895L153.075 254.778C144.442 253.612 138.371 245.658 139.537 237.02L166.267 38.63C167.427 29.997 175.392 23.932 184.007 25.092L314.334 42.655C322.961 43.821 329.026 51.78 327.866 60.407L311.42 182.46L296.09 177.908C278.623 172.711 260.264 182.692 255.086 200.14L235.561 265.895Z" class="" fill="#000000" fill-opacity="1" stroke="#ffffff" stroke-opacity="1" stroke-width="6" filter="url(#shadow-6)"></path><path d="M230.371 234.435C235.041 231.38 237.845 226.997 238.791 221.29C239.727 215.657 238.434 210.673 234.925 206.345C231.415 201.931 226.535 199.205 220.269 198.167C213.925 197.11 208.339 198.094 203.519 201.123C198.693 204.153 195.827 208.439 194.904 213.993C194.006 219.379 195.329 224.413 198.874 229.075C202.439 233.579 207.399 236.36 213.737 237.415C220.087 238.472 225.63 237.477 230.371 234.435Z" class="" fill="#ffffff" fill-opacity="1" stroke="#f8e71c" stroke-opacity="1" stroke-width="6" filter="url(#shadow-7)"></path><path d="M256.349 153.192C261.042 150.466 265.237 147.758 268.947 145.075C272.65 142.391 275.862 139.489 278.582 136.35C281.288 133.239 283.554 129.771 285.315 126.043C287.075 122.303 288.363 118.011 289.165 113.178C290.427 105.558 290.185 98.82 288.43 92.944C286.68 87.074 283.737 82.004 279.597 77.724C275.462 73.454 270.357 69.971 264.279 67.294C258.209 64.61 251.475 62.661 244.105 61.434C236.413 60.154 228.805 59.832 221.29 60.457C213.774 61.071 206.66 62.704 199.944 65.337L193.994 101.139C200.807 96.889 207.764 94.035 214.849 92.572C221.939 91.097 228.575 90.872 234.762 91.904C256.229 95.996 254.202 116.802 243.522 125.934C237.87 130.407 232.188 134.736 227.58 137.279C217.1 143.193 199.89 160.404 205.038 182.424L236.322 187.626C229.212 169.869 247.985 158.164 256.35 153.192Z" class="selected" fill="#ffffff" fill-opacity="1" stroke="#f8e71c" stroke-opacity="1" stroke-width="8" filter="url(#shadow-8)"></path></g></g></svg>