<svg xmlns="http://www.w3.org/2000/svg" viewBox="0 0 512 512" style="height: 512px; width: 512px;"><defs><filter id="shadow-1" height="300%" width="300%" x="-100%" y="-100%"><feFlood flood-color="rgba(72, 186, 255, 1)" result="flood"></feFlood><feComposite in="flood" in2="SourceGraphic" operator="atop" result="composite"></feComposite><feGaussianBlur in="composite" stdDeviation="15" result="blur"></feGaussianBlur><feOffset dx="0" dy="0" result="offset"></feOffset><feComposite in="SourceGraphic" in2="offset" operator="over"></feComposite></filter><radialGradient id="delapouite-choice-gradient-0"><stop offset="0%" stop-color="#4a90e2" stop-opacity="1"></stop><stop offset="100%" stop-color="#000000" stop-opacity="1"></stop></radialGradient></defs><circle cx="256" cy="256" r="248" fill="url(#delapouite-choice-gradient-0)" stroke="#ffffff" stroke-opacity="1" stroke-width="8"></circle><g class="" transform="translate(-12,0)" style=""><path d="M400 25c-48.2 0-87 38.84-87 87 0 48.2 38.8 87 87 87s87-38.8 87-87c0-48.16-38.8-87-87-87zm40.5 34.01 15 9.98-70.1 105.11-55.8-55.7 12.8-12.8 40.2 40.3 57.9-86.89zM304.7 156.1 186.4 238H32v36h154.4l118.3 81.9c5.1-11 12.1-21 20.5-29.5L223.6 256l101.6-70.4c-8.4-8.5-15.4-18.5-20.5-29.5zM400 313c-48.2 0-87 38.8-87 87s38.8 87 87 87 87-38.8 87-87-38.8-87-87-87zm-41.6 32.6 41.6 41.6 41.6-41.6 12.8 12.8-41.6 41.6 41.6 41.6-12.8 12.8-41.6-41.6-41.6 41.6-12.8-12.8 41.6-41.6-41.6-41.6 12.8-12.8z" fill="#ffffff" fill-opacity="1" stroke="#000000" stroke-opacity="1" stroke-width="5" filter="url(#shadow-1)" transform="translate(25.6, 25.6) scale(0.9, 0.9) rotate(0, 256, 256) skewX(0) skewY(0)"></path></g></svg>